<svg width="40" height="40" viewBox="0 0 40 40" fill="none" xmlns="http://www.w3.org/2000/svg">
<rect x="0.5" y="0.5" width="39" height="39" rx="9.5" stroke="black"/>
<path d="M8.7036 20.8806C10.8078 19.7216 13.1566 18.7542 15.3513 17.7819C19.1269 16.1894 22.9176 14.6244 26.7465 13.1675C27.4915 12.9192 28.83 12.6765 28.9612 13.7805C28.8894 15.3432 28.5937 16.8967 28.3909 18.4503C27.8762 21.8667 27.2813 25.2714 26.7012 28.6765C26.5013 29.8107 25.0804 30.3979 24.1713 29.6721C21.9864 28.1962 19.7847 26.7348 17.6277 25.2247C16.9211 24.5067 17.5763 23.4757 18.2074 22.963C20.0069 21.1896 21.9154 19.6828 23.6209 17.8177C24.0809 16.7067 22.7216 17.643 22.2733 17.9299C19.8097 19.6276 17.4064 21.429 14.809 22.921C13.4822 23.6514 11.9359 23.0272 10.6097 22.6197C9.42064 22.1274 7.67823 21.6314 8.70348 20.8807L8.7036 20.8806Z" fill="black"/>
</svg>
