<svg width="40" height="40" viewBox="0 0 40 40" fill="none" xmlns="http://www.w3.org/2000/svg">
<g clip-path="url(#clip0_200_157)">
<rect width="40" height="40" fill="white"/>
<path d="M0.5 19.2C0.5 14.6604 0.501062 11.306 0.847013 8.7328C1.19103 6.17404 1.86783 4.46283 3.16533 3.16533C4.46283 1.86783 6.17404 1.19103 8.7328 0.847013C11.306 0.501062 14.6604 0.5 19.2 0.5H20.8C25.3396 0.5 28.694 0.501062 31.2672 0.847013C33.826 1.19103 35.5372 1.86782 36.8347 3.16533C38.1322 4.46283 38.809 6.17404 39.153 8.7328C39.4989 11.306 39.5 14.6604 39.5 19.2V20.8C39.5 25.3396 39.4989 28.694 39.153 31.2672C38.809 33.826 38.1322 35.5372 36.8347 36.8347C35.5372 38.1322 33.826 38.809 31.2672 39.153C28.694 39.4989 25.3396 39.5 20.8 39.5H19.2C14.6604 39.5 11.306 39.4989 8.7328 39.153C6.17404 38.809 4.46283 38.1322 3.16533 36.8347C1.86782 35.5372 1.19103 33.826 0.847013 31.2672C0.501062 28.694 0.5 25.3396 0.5 20.8V19.2Z" stroke="#0A7272"/>
<path d="M21.2147 28.8C11.9215 28.8 6.62089 22.4937 6.40002 12H11.0551C11.208 19.7021 14.6398 22.9646 17.3581 23.6372V12H21.7415V18.6426C24.4258 18.3568 27.2457 15.3297 28.1971 12H32.5805C31.8499 16.1033 28.7919 19.1303 26.6172 20.3748C28.7919 21.3838 32.2748 24.024 33.6 28.8H28.7749C27.7385 25.6048 25.1564 23.1327 21.7415 22.7964V28.8H21.2147Z" fill="#0A7272"/>
</g>
<defs>
<clipPath id="clip0_200_157">
<rect width="40" height="40" fill="white"/>
</clipPath>
</defs>
</svg>
