<svg width="40" height="40" viewBox="0 0 40 40" fill="none" xmlns="http://www.w3.org/2000/svg">
<rect x="0.5" y="0.5" width="39" height="39" rx="9.5" fill="white"/>
<rect x="0.5" y="0.5" width="39" height="39" rx="9.5" stroke="#0A7272"/>
<g clip-path="url(#clip0_200_164)">
<path d="M20 24C22.2091 24 24 22.2091 24 20C24 17.7909 22.2091 16 20 16C17.7909 16 16 17.7909 16 20C16 22.2091 17.7909 24 20 24Z" stroke="#0A7272" stroke-width="3" stroke-linecap="round" stroke-linejoin="round"/>
<path d="M24 16V21C24 21.7956 24.3161 22.5587 24.8787 23.1213C25.4413 23.6839 26.2044 24 27 24C27.7957 24 28.5587 23.6839 29.1213 23.1213C29.6839 22.5587 30 21.7956 30 21V20C29.9999 17.743 29.2362 15.5525 27.8333 13.7845C26.4303 12.0166 24.4706 10.7752 22.2726 10.2623C20.0747 9.74936 17.7679 9.99503 15.7274 10.9594C13.6868 11.9237 12.0324 13.5499 11.0333 15.5737C10.0341 17.5975 9.74898 19.8997 10.2242 22.1061C10.6994 24.3125 11.907 26.2932 13.6506 27.7263C15.3943 29.1593 17.5714 29.9603 19.8281 29.9991C22.0847 30.0379 24.2881 29.3122 26.08 27.94" stroke="#0A7272" stroke-width="3" stroke-linecap="round" stroke-linejoin="round"/>
</g>
<defs>
<clipPath id="clip0_200_164">
<rect width="24" height="24" fill="white" transform="translate(8 8)"/>
</clipPath>
</defs>
</svg>
